<?xml version="1.0" standalone="no"?>
<!DOCTYPE svg PUBLIC "-//W3C//DTD SVG 20010904//EN"
 "http://www.w3.org/TR/2001/REC-SVG-20010904/DTD/svg10.dtd">
<svg version="1.0" xmlns="http://www.w3.org/2000/svg"
 width="700.000000pt" height="700.000000pt" viewBox="0 0 700.000000 700.000000"
 preserveAspectRatio="xMidYMid meet">
<metadata>
Created by potrace 1.11, written by Peter Selinger 2001-2013
</metadata>
<g transform="translate(0.000000,700.000000) scale(0.100000,-0.100000)"
fill="#000000" stroke="none">
<path d="M1776 6943 c69 -152 124 -339 140 -473 10 -76 9 -271 0 -350 -31
-263 -165 -567 -393 -896 -57 -82 -296 -388 -333 -426 -8 -9 -31 -35 -50 -59
-19 -24 -98 -118 -176 -209 -160 -189 -355 -430 -436 -540 -58 -80 -198 -288
-198 -296 0 -2 -12 -23 -26 -45 -86 -137 -227 -470 -249 -588 -3 -14 -7 -37
-10 -51 -14 -66 -24 -120 -31 -175 -11 -78 -11 -357 -1 -465 10 -103 52 -334
73 -404 74 -238 106 -321 196 -500 85 -169 162 -293 281 -451 33 -44 63 -82
66 -85 4 -3 19 -21 35 -40 30 -37 173 -196 193 -214 6 -6 46 -45 90 -86 221
-213 490 -414 751 -561 38 -22 59 -25 45 -6 -26 34 -115 276 -126 342 -3 17
-11 55 -18 85 -17 73 -18 405 -1 480 7 30 14 66 17 80 18 93 91 281 168 428
106 207 343 540 561 792 17 20 50 58 72 85 62 75 223 267 245 293 19 22 151
186 167 207 4 6 37 48 73 95 249 322 413 615 510 915 16 50 32 102 34 117 3
16 12 56 20 91 21 92 30 202 30 372 -1 163 -7 240 -30 385 -51 313 -184 669
-342 918 -18 29 -33 55 -33 58 0 7 -77 119 -135 194 -128 168 -243 299 -384
434 -96 92 -102 97 -166 151 -33 27 -66 56 -74 63 -73 70 -378 279 -539 369
l-42 24 26 -58z"/>
<path d="M4380 4366 c0 -3 16 -39 35 -81 35 -78 90 -238 101 -297 3 -18 12
-64 19 -103 14 -80 17 -315 5 -390 -5 -27 -11 -68 -15 -90 -8 -50 -49 -193
-77 -265 -42 -109 -172 -361 -190 -368 -4 -2 -8 -8 -8 -13 0 -16 -234 -348
-259 -369 -4 -3 -31 -36 -61 -75 -30 -38 -57 -72 -60 -75 -3 -3 -34 -41 -70
-85 -36 -43 -75 -91 -88 -104 -13 -14 -48 -57 -79 -96 -31 -38 -62 -74 -67
-80 -6 -5 -33 -37 -61 -70 -27 -33 -52 -62 -55 -65 -6 -5 -90 -108 -102 -125
-5 -5 -24 -30 -44 -55 -111 -137 -231 -304 -339 -475 -52 -82 -161 -294 -197
-385 -47 -116 -99 -292 -114 -385 -3 -20 -8 -47 -10 -59 -3 -11 -7 -66 -10
-121 -3 -55 -7 -108 -9 -118 -3 -16 62 -17 1338 -17 1471 1 1393 -2 1517 60
199 100 367 317 485 626 33 86 83 275 109 419 54 289 64 771 22 1025 -4 25
-10 58 -12 74 -3 16 -6 32 -8 35 -2 3 -7 23 -10 43 -35 223 -175 572 -330 823
-98 159 -263 378 -372 493 -199 208 -277 279 -530 481 -106 85 -454 305 -454
287z"/>
</g>
</svg>
